<?xml version="1.0" encoding="UTF-8"?>
<svg xmlns="http://www.w3.org/2000/svg" xmlns:xlink="http://www.w3.org/1999/xlink" width="60pt" height="60pt" viewBox="0 0 60 60" version="1.2">
<defs>
<clipPath id="clip1">
  <path d="M 1.5 1.5 L 58.5 1.5 L 58.5 58.5 L 1.5 58.5 Z M 1.5 1.5 "/>
</clipPath>
</defs>
<g id="surface1">
<rect x="0" y="0" width="60" height="60" style="fill:rgb(100%,100%,100%);fill-opacity:1;stroke:none;"/>
<rect x="0" y="0" width="60" height="60" style="fill:rgb(100%,100%,100%);fill-opacity:1;stroke:none;"/>
<rect x="0" y="0" width="60" height="60" style="fill:rgb(100%,100%,100%);fill-opacity:1;stroke:none;"/>
<path style=" stroke:none;fill-rule:nonzero;fill:rgb(0%,44.709778%,100%);fill-opacity:1;" d="M 25.09375 24.621094 C 25.09375 22.226562 23.558594 22.316406 23.558594 22.316406 L 17.320312 22.316406 L 17.320312 27.289062 L 23.152344 27.289062 C 24.191406 27.289062 25.09375 27.015625 25.09375 24.621094 Z M 25.09375 24.621094 "/>
<path style=" stroke:none;fill-rule:nonzero;fill:rgb(0%,44.709778%,100%);fill-opacity:1;" d="M 23.558594 30.902344 L 17.320312 30.902344 L 17.320312 37.230469 L 23.195312 37.230469 C 24.101562 37.230469 25.820312 36.871094 25.820312 34.160156 C 25.863281 30.949219 23.558594 30.902344 23.558594 30.902344 Z M 23.558594 30.902344 "/>
<g clip-path="url(#clip1)" clip-rule="nonzero">
<path style=" stroke:none;fill-rule:nonzero;fill:rgb(0%,44.709778%,100%);fill-opacity:1;" d="M 44.171875 1.523438 L 15.785156 1.523438 C 7.917969 1.523438 1.5 7.941406 1.5 15.804688 L 1.5 44.238281 C 1.5 52.058594 7.917969 58.476562 15.785156 58.476562 L 44.214844 58.476562 C 52.082031 58.476562 58.5 52.058594 58.5 44.195312 L 58.5 15.804688 C 58.453125 7.941406 52.035156 1.523438 44.171875 1.523438 Z M 34.949219 19.601562 L 44.441406 19.601562 L 44.441406 21.863281 L 34.949219 21.863281 Z M 30.519531 34.476562 C 30.519531 41.527344 23.558594 41.753906 23.558594 41.753906 L 12.347656 41.753906 L 12.347656 18.246094 L 23.511719 18.246094 C 26.992188 18.246094 29.75 20.234375 29.75 24.394531 C 29.75 28.554688 26.40625 28.78125 26.40625 28.78125 C 30.835938 28.734375 30.519531 34.476562 30.519531 34.476562 Z M 47.5625 34.066406 L 36.125 34.066406 C 36.125 38.589844 40.011719 38.226562 40.011719 38.226562 C 43.671875 38.226562 43.539062 35.875 43.539062 35.875 L 47.425781 35.875 C 47.425781 42.203125 39.875 41.933594 39.875 41.933594 C 30.835938 41.933594 31.425781 33.027344 31.425781 33.027344 C 31.425781 33.027344 31.425781 24.078125 39.875 24.078125 C 48.78125 24.035156 47.5625 34.066406 47.5625 34.066406 Z M 47.5625 34.066406 "/>
</g>
<path style=" stroke:none;fill-rule:nonzero;fill:rgb(0%,44.709778%,100%);fill-opacity:1;" d="M 39.96875 27.332031 C 36.578125 27.332031 36.078125 30.902344 36.078125 30.902344 L 43.3125 30.902344 C 43.3125 30.902344 43.355469 27.332031 39.96875 27.332031 Z M 39.96875 27.332031 "/>
</g>
</svg>
