<?xml version="1.0" encoding="UTF-8"?>
<svg xmlns="http://www.w3.org/2000/svg" xmlns:xlink="http://www.w3.org/1999/xlink" width="60pt" height="60pt" viewBox="0 0 60 60" version="1.2">
<defs>
<clipPath id="clip1">
  <path d="M 2.273438 2.273438 L 57.773438 2.273438 L 57.773438 57.773438 L 2.273438 57.773438 Z M 2.273438 2.273438 "/>
</clipPath>
</defs>
<g id="surface1">
<g clip-path="url(#clip1)" clip-rule="nonzero">
<path style=" stroke:none;fill-rule:nonzero;fill:rgb(0%,46.669006%,70.979309%);fill-opacity:1;" d="M 10.609375 2.273438 L 49.5 2.273438 C 50.046875 2.273438 50.589844 2.328125 51.125 2.433594 C 51.660156 2.542969 52.183594 2.699219 52.6875 2.910156 C 53.195312 3.117188 53.675781 3.375 54.128906 3.679688 C 54.585938 3.984375 55.003906 4.328125 55.390625 4.714844 C 55.777344 5.101562 56.125 5.523438 56.429688 5.976562 C 56.730469 6.433594 56.988281 6.914062 57.199219 7.417969 C 57.40625 7.925781 57.566406 8.445312 57.671875 8.980469 C 57.78125 9.519531 57.832031 10.0625 57.832031 10.609375 L 57.832031 49.5 C 57.832031 50.046875 57.78125 50.589844 57.671875 51.125 C 57.566406 51.660156 57.40625 52.183594 57.199219 52.6875 C 56.988281 53.195312 56.730469 53.675781 56.429688 54.128906 C 56.125 54.585938 55.777344 55.003906 55.390625 55.390625 C 55.003906 55.777344 54.585938 56.125 54.128906 56.429688 C 53.675781 56.730469 53.195312 56.988281 52.6875 57.199219 C 52.183594 57.40625 51.660156 57.566406 51.125 57.671875 C 50.589844 57.78125 50.046875 57.832031 49.5 57.832031 L 10.609375 57.832031 C 10.0625 57.832031 9.519531 57.78125 8.980469 57.671875 C 8.445312 57.566406 7.925781 57.40625 7.417969 57.199219 C 6.914062 56.988281 6.433594 56.730469 5.976562 56.429688 C 5.523438 56.125 5.101562 55.777344 4.714844 55.390625 C 4.328125 55.003906 3.984375 54.585938 3.679688 54.128906 C 3.375 53.675781 3.117188 53.195312 2.910156 52.6875 C 2.699219 52.183594 2.542969 51.660156 2.433594 51.125 C 2.328125 50.589844 2.273438 50.046875 2.273438 49.5 L 2.273438 10.609375 C 2.273438 10.0625 2.328125 9.519531 2.433594 8.980469 C 2.542969 8.445312 2.699219 7.925781 2.910156 7.417969 C 3.117188 6.914062 3.375 6.433594 3.679688 5.976562 C 3.984375 5.523438 4.328125 5.101562 4.714844 4.714844 C 5.101562 4.328125 5.523438 3.984375 5.976562 3.679688 C 6.433594 3.375 6.914062 3.117188 7.417969 2.910156 C 7.925781 2.699219 8.445312 2.542969 8.980469 2.433594 C 9.519531 2.328125 10.0625 2.273438 10.609375 2.273438 Z M 10.609375 2.273438 "/>
</g>
<path style=" stroke:none;fill-rule:nonzero;fill:rgb(100%,100%,100%);fill-opacity:1;" d="M 21.699219 17.25 C 21.699219 17.511719 21.671875 17.773438 21.621094 18.03125 C 21.570312 18.289062 21.492188 18.542969 21.390625 18.785156 C 21.292969 19.027344 21.167969 19.261719 21.019531 19.480469 C 20.875 19.699219 20.707031 19.902344 20.523438 20.089844 C 20.335938 20.273438 20.132812 20.441406 19.914062 20.585938 C 19.695312 20.734375 19.464844 20.859375 19.21875 20.957031 C 18.976562 21.058594 18.726562 21.136719 18.464844 21.1875 C 18.207031 21.238281 17.945312 21.265625 17.683594 21.265625 C 17.417969 21.265625 17.160156 21.238281 16.898438 21.1875 C 16.640625 21.136719 16.390625 21.058594 16.148438 20.957031 C 15.902344 20.859375 15.671875 20.734375 15.453125 20.585938 C 15.234375 20.441406 15.03125 20.273438 14.84375 20.089844 C 14.65625 19.902344 14.492188 19.699219 14.34375 19.480469 C 14.199219 19.261719 14.074219 19.027344 13.972656 18.785156 C 13.871094 18.542969 13.796875 18.289062 13.746094 18.03125 C 13.695312 17.773438 13.667969 17.511719 13.667969 17.25 C 13.667969 16.984375 13.695312 16.722656 13.746094 16.464844 C 13.796875 16.207031 13.871094 15.957031 13.972656 15.710938 C 14.074219 15.46875 14.199219 15.238281 14.34375 15.019531 C 14.492188 14.800781 14.65625 14.597656 14.84375 14.410156 C 15.03125 14.222656 15.234375 14.058594 15.453125 13.910156 C 15.671875 13.765625 15.902344 13.640625 16.148438 13.539062 C 16.390625 13.4375 16.640625 13.363281 16.898438 13.3125 C 17.160156 13.257812 17.417969 13.234375 17.683594 13.234375 C 17.945312 13.234375 18.207031 13.257812 18.464844 13.3125 C 18.726562 13.363281 18.976562 13.4375 19.21875 13.539062 C 19.464844 13.640625 19.695312 13.765625 19.914062 13.910156 C 20.132812 14.058594 20.335938 14.222656 20.523438 14.410156 C 20.707031 14.597656 20.875 14.800781 21.019531 15.019531 C 21.167969 15.238281 21.292969 15.46875 21.390625 15.710938 C 21.492188 15.957031 21.570312 16.207031 21.621094 16.464844 C 21.671875 16.722656 21.699219 16.984375 21.699219 17.25 Z M 21.699219 17.25 "/>
<path style="fill-rule:nonzero;fill:rgb(100%,100%,100%);fill-opacity:1;stroke-width:66;stroke-linecap:butt;stroke-linejoin:miter;stroke:rgb(100%,100%,100%);stroke-opacity:1;stroke-miterlimit:4;" d="M 243.987411 193.986184 L 243.987411 392.011128 M 142.005105 193.986184 L 142.005105 392.011128 " transform="matrix(0.108513,0,0,0.108513,2.274193,2.274195)"/>
<path style=" stroke:none;fill-rule:nonzero;fill:rgb(100%,100%,100%);fill-opacity:1;" d="M 32.222656 32.875 C 32.222656 30.703125 33.632812 28.535156 36.128906 28.535156 C 38.734375 28.535156 39.710938 30.488281 39.710938 33.417969 L 39.710938 44.8125 L 46.871094 44.8125 L 46.871094 32.550781 C 46.871094 25.929688 43.402344 22.890625 38.625 22.890625 C 34.9375 22.890625 33.09375 24.953125 32.222656 26.363281 "/>
</g>
</svg>
