<?xml version="1.0" encoding="UTF-8"?>
<svg xmlns="http://www.w3.org/2000/svg" xmlns:xlink="http://www.w3.org/1999/xlink" width="375pt" height="374.999991pt" viewBox="0 0 375 374.999991" version="1.2">
<defs>
<clipPath id="clip1">
  <path d="M 24.550781 24.550781 L 350.800781 24.550781 L 350.800781 112 L 24.550781 112 Z M 24.550781 24.550781 "/>
</clipPath>
<clipPath id="clip2">
  <path d="M 24.550781 122 L 123 122 L 123 350.800781 L 24.550781 350.800781 Z M 24.550781 122 "/>
</clipPath>
<clipPath id="clip3">
  <path d="M 247 122 L 350.800781 122 L 350.800781 204 L 247 204 Z M 247 122 "/>
</clipPath>
<clipPath id="clip4">
  <path d="M 247 236 L 350.800781 236 L 350.800781 248 L 247 248 Z M 247 236 "/>
</clipPath>
<clipPath id="clip5">
  <path d="M 138 339 L 237 339 L 237 350.800781 L 138 350.800781 Z M 138 339 "/>
</clipPath>
<clipPath id="clip6">
  <path d="M 247 258 L 350.800781 258 L 350.800781 350.800781 L 247 350.800781 Z M 247 258 "/>
</clipPath>
</defs>
<g id="surface1">
<g clip-path="url(#clip1)" clip-rule="nonzero">
<path style=" stroke:none;fill-rule:nonzero;fill:rgb(0%,17.248535%,24.308777%);fill-opacity:1;" d="M 345.363281 24.550781 L 29.988281 24.550781 C 26.984375 24.550781 24.550781 26.980469 24.550781 29.988281 L 24.550781 106.113281 C 24.550781 109.117188 26.984375 111.550781 29.988281 111.550781 L 345.363281 111.550781 C 348.363281 111.550781 350.800781 109.117188 350.800781 106.113281 L 350.800781 29.988281 C 350.800781 26.980469 348.363281 24.550781 345.363281 24.550781 Z M 164.511719 68.050781 L 35.425781 99.207031 L 35.425781 36.890625 Z M 75.679688 35.425781 L 299.664062 35.425781 L 187.675781 62.460938 Z M 187.675781 73.640625 L 299.671875 100.675781 L 75.679688 100.675781 Z M 210.835938 68.050781 L 339.925781 36.890625 L 339.925781 99.207031 Z M 210.835938 68.050781 "/>
</g>
<g clip-path="url(#clip2)" clip-rule="nonzero">
<path style=" stroke:none;fill-rule:nonzero;fill:rgb(0%,17.248535%,24.308777%);fill-opacity:1;" d="M 29.988281 350.800781 L 116.988281 350.800781 C 119.988281 350.800781 122.425781 348.367188 122.425781 345.363281 L 122.425781 127.863281 C 122.425781 124.855469 119.988281 122.425781 116.988281 122.425781 L 29.988281 122.425781 C 26.984375 122.425781 24.550781 124.855469 24.550781 127.863281 L 24.550781 345.363281 C 24.550781 348.367188 26.984375 350.800781 29.988281 350.800781 Z M 111.550781 278.828125 L 79.566406 214.863281 L 111.550781 150.894531 Z M 108.1875 296.425781 L 38.785156 296.425781 L 73.488281 227.019531 Z M 73.488281 202.703125 L 38.785156 133.300781 L 108.1875 133.300781 Z M 67.40625 214.863281 L 35.425781 278.828125 L 35.425781 150.894531 Z M 111.550781 339.925781 L 35.425781 339.925781 L 35.425781 307.300781 L 111.550781 307.300781 Z M 111.550781 339.925781 "/>
</g>
<path style=" stroke:none;fill-rule:nonzero;fill:rgb(0%,17.248535%,24.308777%);fill-opacity:1;" d="M 46.300781 318.175781 L 57.175781 318.175781 L 57.175781 329.050781 L 46.300781 329.050781 Z M 46.300781 318.175781 "/>
<path style=" stroke:none;fill-rule:nonzero;fill:rgb(0%,17.248535%,24.308777%);fill-opacity:1;" d="M 68.050781 318.175781 L 78.925781 318.175781 L 78.925781 329.050781 L 68.050781 329.050781 Z M 68.050781 318.175781 "/>
<path style=" stroke:none;fill-rule:nonzero;fill:rgb(0%,17.248535%,24.308777%);fill-opacity:1;" d="M 89.800781 318.175781 L 100.675781 318.175781 L 100.675781 329.050781 L 89.800781 329.050781 Z M 89.800781 318.175781 "/>
<path style=" stroke:none;fill-rule:nonzero;fill:rgb(0%,17.248535%,24.308777%);fill-opacity:1;" d="M 144.175781 247.488281 L 231.175781 247.488281 C 234.175781 247.488281 236.613281 245.054688 236.613281 242.050781 L 236.613281 127.863281 C 236.613281 124.855469 234.175781 122.425781 231.175781 122.425781 L 144.175781 122.425781 C 141.171875 122.425781 138.738281 124.855469 138.738281 127.863281 L 138.738281 242.050781 C 138.738281 245.054688 141.171875 247.488281 144.175781 247.488281 Z M 225.738281 187.125 L 196.296875 163.207031 L 225.738281 139.285156 Z M 215.855469 193.113281 L 159.492188 193.113281 L 187.675781 170.214844 Z M 187.675781 156.195312 L 159.492188 133.300781 L 215.863281 133.300781 Z M 179.050781 163.207031 L 149.613281 187.125 L 149.613281 139.285156 Z M 225.738281 236.613281 L 149.613281 236.613281 L 149.613281 203.988281 L 225.738281 203.988281 Z M 225.738281 236.613281 "/>
<path style=" stroke:none;fill-rule:nonzero;fill:rgb(0%,17.248535%,24.308777%);fill-opacity:1;" d="M 160.488281 214.863281 L 171.363281 214.863281 L 171.363281 225.738281 L 160.488281 225.738281 Z M 160.488281 214.863281 "/>
<path style=" stroke:none;fill-rule:nonzero;fill:rgb(0%,17.248535%,24.308777%);fill-opacity:1;" d="M 182.238281 214.863281 L 193.113281 214.863281 L 193.113281 225.738281 L 182.238281 225.738281 Z M 182.238281 214.863281 "/>
<path style=" stroke:none;fill-rule:nonzero;fill:rgb(0%,17.248535%,24.308777%);fill-opacity:1;" d="M 203.988281 214.863281 L 214.863281 214.863281 L 214.863281 225.738281 L 203.988281 225.738281 Z M 203.988281 214.863281 "/>
<g clip-path="url(#clip3)" clip-rule="nonzero">
<path style=" stroke:none;fill-rule:nonzero;fill:rgb(0%,17.248535%,24.308777%);fill-opacity:1;" d="M 345.363281 122.425781 L 252.925781 122.425781 C 249.921875 122.425781 247.488281 124.855469 247.488281 127.863281 L 247.488281 198.550781 C 247.488281 201.554688 249.921875 203.988281 252.925781 203.988281 L 345.363281 203.988281 C 348.363281 203.988281 350.800781 201.554688 350.800781 198.550781 L 350.800781 127.863281 C 350.800781 124.855469 348.363281 122.425781 345.363281 122.425781 Z M 339.925781 193.113281 L 258.363281 193.113281 L 258.363281 133.300781 L 339.925781 133.300781 Z M 339.925781 193.113281 "/>
</g>
<path style=" stroke:none;fill-rule:nonzero;fill:rgb(0%,17.248535%,24.308777%);fill-opacity:1;" d="M 263.800781 214.863281 L 334.488281 214.863281 L 334.488281 225.738281 L 263.800781 225.738281 Z M 263.800781 214.863281 "/>
<g clip-path="url(#clip4)" clip-rule="nonzero">
<path style=" stroke:none;fill-rule:nonzero;fill:rgb(0%,17.248535%,24.308777%);fill-opacity:1;" d="M 247.488281 236.613281 L 350.800781 236.613281 L 350.800781 247.488281 L 247.488281 247.488281 Z M 247.488281 236.613281 "/>
</g>
<path style=" stroke:none;fill-rule:nonzero;fill:rgb(0%,17.248535%,24.308777%);fill-opacity:1;" d="M 138.738281 323.613281 C 138.738281 326.617188 141.171875 329.050781 144.175781 329.050781 L 231.175781 329.050781 C 234.175781 329.050781 236.613281 326.617188 236.613281 323.613281 L 236.613281 263.800781 C 236.613281 260.792969 234.175781 258.363281 231.175781 258.363281 L 144.175781 258.363281 C 141.171875 258.363281 138.738281 260.792969 138.738281 263.800781 Z M 149.613281 269.238281 L 225.738281 269.238281 L 225.738281 318.175781 L 149.613281 318.175781 Z M 149.613281 269.238281 "/>
<g clip-path="url(#clip5)" clip-rule="nonzero">
<path style=" stroke:none;fill-rule:nonzero;fill:rgb(0%,17.248535%,24.308777%);fill-opacity:1;" d="M 138.738281 339.925781 L 236.613281 339.925781 L 236.613281 350.800781 L 138.738281 350.800781 Z M 138.738281 339.925781 "/>
</g>
<g clip-path="url(#clip6)" clip-rule="nonzero">
<path style=" stroke:none;fill-rule:nonzero;fill:rgb(0%,17.248535%,24.308777%);fill-opacity:1;" d="M 345.363281 258.363281 L 252.925781 258.363281 C 249.921875 258.363281 247.488281 260.792969 247.488281 263.800781 L 247.488281 345.363281 C 247.488281 348.367188 249.921875 350.800781 252.925781 350.800781 L 345.363281 350.800781 C 348.363281 350.800781 350.800781 348.367188 350.800781 345.363281 L 350.800781 263.800781 C 350.800781 260.792969 348.363281 258.363281 345.363281 258.363281 Z M 290.921875 304.582031 L 258.363281 333.3125 L 258.363281 275.847656 Z M 267.304688 269.238281 L 330.980469 269.238281 L 299.144531 297.328125 Z M 299.144531 311.832031 L 330.980469 339.925781 L 267.304688 339.925781 Z M 307.363281 304.582031 L 339.925781 275.847656 L 339.925781 333.3125 Z M 307.363281 304.582031 "/>
</g>
</g>
</svg>
